ModelForces
version=1
nRows=4
nColumns=157
inDegrees=no

This file contains the forces exerted on a model during a simulation.

A force is a generalized force, meaning that it can be either a force (N) or a torque (Nm).

Units are S.I. units (second, meters, Newtons, ...)
Angles are in degrees.

endheader
time	glut_med1_r	glut_med2_r	glut_med3_r	glut_min1_r	glut_min2_r	glut_min3_r	semimem_r	semiten_r	bifemlh_r	bifemsh_r	sar_r	add_long_r	add_brev_r	add_mag1_r	add_mag2_r	add_mag3_r	tfl_r	pect_r	grac_r	glut_max1_r	glut_max2_r	glut_max3_r	iliacus_r	psoas_r	quad_fem_r	gem_r	peri_r	rect_fem_r	vas_med_r	vas_int_r	vas_lat_r	med_gas_r	lat_gas_r	soleus_r	tib_post_r	flex_dig_r	flex_hal_r	tib_ant_r	per_brev_r	per_long_r	per_tert_r	ext_dig_r	ext_hal_r	glut_med1_l	glut_med2_l	glut_med3_l	glut_min1_l	glut_min2_l	glut_min3_l	semimem_l	semiten_l	bifemlh_l	bifemsh_l	sar_l	add_long_l	add_brev_l	add_mag1_l	add_mag2_l	add_mag3_l	tfl_l	pect_l	grac_l	glut_max1_l	glut_max2_l	glut_max3_l	iliacus_l	psoas_l	quad_fem_l	gem_l	peri_l	rect_fem_l	vas_med_l	vas_int_l	vas_lat_l	med_gas_l	lat_gas_l	soleus_l	tib_post_l	flex_dig_l	flex_hal_l	tib_ant_l	per_brev_l	per_long_l	per_tert_l	ext_dig_l	ext_hal_l	ercspn_r	ercspn_l	intobl_r	intobl_l	extobl_r	extobl_l	femur_lat_meniscii_r.femur_lat_r.force.X	femur_lat_meniscii_r.femur_lat_r.force.Y	femur_lat_meniscii_r.femur_lat_r.force.Z	femur_lat_meniscii_r.femur_lat_r.torque.X	femur_lat_meniscii_r.femur_lat_r.torque.Y	femur_lat_meniscii_r.femur_lat_r.torque.Z	femur_lat_meniscii_r.meniscus_lat_r.force.X	femur_lat_meniscii_r.meniscus_lat_r.force.Y	femur_lat_meniscii_r.meniscus_lat_r.force.Z	femur_lat_meniscii_r.meniscus_lat_r.torque.X	femur_lat_meniscii_r.meniscus_lat_r.torque.Y	femur_lat_meniscii_r.meniscus_lat_r.torque.Z	femur_med_meniscii_r.femur_med_r.force.X	femur_med_meniscii_r.femur_med_r.force.Y	femur_med_meniscii_r.femur_med_r.force.Z	femur_med_meniscii_r.femur_med_r.torque.X	femur_med_meniscii_r.femur_med_r.torque.Y	femur_med_meniscii_r.femur_med_r.torque.Z	femur_med_meniscii_r.meniscus_med_r.force.X	femur_med_meniscii_r.meniscus_med_r.force.Y	femur_med_meniscii_r.meniscus_med_r.force.Z	femur_med_meniscii_r.meniscus_med_r.torque.X	femur_med_meniscii_r.meniscus_med_r.torque.Y	femur_med_meniscii_r.meniscus_med_r.torque.Z	femur_med_tibia_r.tibia_upper_r.force.X	femur_med_tibia_r.tibia_upper_r.force.Y	femur_med_tibia_r.tibia_upper_r.force.Z	femur_med_tibia_r.tibia_upper_r.torque.X	femur_med_tibia_r.tibia_upper_r.torque.Y	femur_med_tibia_r.tibia_upper_r.torque.Z	femur_med_tibia_r.femur_med_r.force.X	femur_med_tibia_r.femur_med_r.force.Y	femur_med_tibia_r.femur_med_r.force.Z	femur_med_tibia_r.femur_med_r.torque.X	femur_med_tibia_r.femur_med_r.torque.Y	femur_med_tibia_r.femur_med_r.torque.Z	femur_lat_tibia_r.tibia_upper_r.force.X	femur_lat_tibia_r.tibia_upper_r.force.Y	femur_lat_tibia_r.tibia_upper_r.force.Z	femur_lat_tibia_r.tibia_upper_r.torque.X	femur_lat_tibia_r.tibia_upper_r.torque.Y	femur_lat_tibia_r.tibia_upper_r.torque.Z	femur_lat_tibia_r.femur_lat_r.force.X	femur_lat_tibia_r.femur_lat_r.force.Y	femur_lat_tibia_r.femur_lat_r.force.Z	femur_lat_tibia_r.femur_lat_r.torque.X	femur_lat_tibia_r.femur_lat_r.torque.Y	femur_lat_tibia_r.femur_lat_r.torque.Z	aACL_R	pACL_R	aPCL_R	pPCL_R	aMCL_R	mMCL_R	pMCL_R	aLCL_R	mLCL_R	pLCL_R	ground_prescribedForce_fx	ground_prescribedForce_fy	ground_prescribedForce_fz	ground_prescribedForce_px	ground_prescribedForce_py	ground_prescribedForce_pz
      0.00000000	     37.48087652	     28.28714471	     30.25598133	     13.28977762	     14.47626353	     15.91713841	     32.59884671	     20.14883361	     33.57013683	     34.76015022	      7.57027083	     27.93927808	     20.68957741	     14.51222487	     12.16230296	     19.66717628	     12.11993944	     11.16605282	      7.69155472	     18.12681708	     27.55933735	     20.56469162	     63.94906620	     55.74758807	     18.09791099	      9.16719286	     20.03897647	     55.77356399	     40.53736492	     41.78775184	     52.95809815	     58.17532718	     27.85185913	    152.72720615	     92.44658902	     14.93332009	     15.26895791	     41.82851940	     21.62523106	     46.40594865	      8.86060096	     25.04818486	      7.96045570	     37.48087652	     28.28714471	     30.25598133	     13.28977762	     14.47626353	     15.91713841	     42.06683902	     20.39635155	     37.67631238	     36.01822118	      7.59254209	     27.93927808	     20.68957741	     14.51222487	     12.16230296	     19.66717628	     12.58139899	     11.16605282	      7.78214370	     18.12681708	     27.55933735	     20.56469162	     63.94906620	     55.74758807	     18.09791099	      9.16719286	     20.03897647	     52.59637061	     32.48786114	     37.22481259	     39.87514307	     67.71424671	     31.64857027	    152.72720615	     92.44658902	     14.93332009	     15.26895791	     41.82851940	     21.62523106	     46.40594865	      8.86060096	     25.04818486	      7.96045570	    124.99446086	    124.99446086	     44.97041513	     44.97041513	     60.98287244	     60.98287244	     61.67396216	     97.15986064	     14.14444595	     -8.26732228	      1.52571655	     25.56658911	    -61.67396216	    -97.15986064	    -14.14444595	      3.21658858	     -1.82397177	     -1.49514820	      0.00000000	      0.00000000	      0.00000000	      0.00000000	      0.00000000	      0.00000000	      0.00000000	      0.00000000	      0.00000000	      0.00000000	      0.00000000	      0.00000000	      0.00000000	      0.00000000	      0.00000000	      0.00000000	      0.00000000	      0.00000000	      0.00000000	      0.00000000	      0.00000000	      0.00000000	      0.00000000	      0.00000000	      0.00000000	      0.00000000	      0.00000000	      0.00000000	      0.00000000	      0.00000000	      0.00000000	      0.00000000	      0.00000000	      0.00000000	      0.00000000	      0.00000000	     14.77615825	      8.32876802	      0.19485120	     75.99576998	      0.22366969	      8.10997858	      6.83469985	      0.00000000	      0.00000000	      0.00000000	    106.25000000	    -28.47000000	      0.00000000	      0.03000000	     -0.03000000	      0.00000000
      0.00100000	     37.47068608	     28.27022932	     30.24086714	     13.26950867	     14.46480712	     15.91260065	     31.80724398	     19.60523442	     32.83120966	     32.12434544	      7.11756442	     27.92554748	     20.64313666	     14.50364319	     12.15716021	     19.66293667	     11.91876844	     11.15324218	      7.29058930	     18.11779344	     27.54583488	     20.55620729	     63.92578024	     55.73415570	     18.08271668	      9.16509816	     20.03713766	     54.52069983	     38.18724384	     39.43719381	     50.44230054	     56.00580353	     26.81955557	    148.93086221	     92.16631535	     14.98278233	     15.28028642	     42.98802619	     21.42480792	     46.13337890	      9.13044674	     25.26426247	      8.04749987	     37.47068608	     28.27022932	     30.24086714	     13.26950867	     14.46480712	     15.91260065	     42.06228881	     20.39020965	     37.67123261	     35.98888344	      7.57882260	     27.92554748	     20.64313666	     14.50364319	     12.15716021	     19.66293667	     12.58033419	     11.15324218	      7.77413879	     18.11779344	     27.54583488	     20.55620729	     63.92578024	     55.73415570	     18.08271668	      9.16509816	     20.03713766	     52.58867645	     32.47668845	     37.21372981	     39.86386325	     67.70976811	     31.64643975	    152.71327822	     92.44307771	     14.93402208	     15.26942871	     41.82127614	     21.62263156	     46.40335095	      8.85785788	     25.04326423	      7.95848292	    124.81723588	    124.81723588	     44.95337082	     44.95337082	     60.96445217	     60.96445217	     69.32830148	    108.90597277	     13.47940338	     -8.28639188	      1.72070821	     28.73675870	    -69.32830148	   -108.90597277	    -13.47940338	      3.53685328	     -2.04601392	     -1.68028093	      0.00000000	      0.00000000	      0.00000000	      0.00000000	      0.00000000	      0.00000000	      0.00000000	      0.00000000	      0.00000000	      0.00000000	      0.00000000	      0.00000000	      0.00000000	      0.00000000	      0.00000000	      0.00000000	      0.00000000	      0.00000000	      0.00000000	      0.00000000	      0.00000000	      0.00000000	      0.00000000	      0.00000000	      0.00000000	      0.00000000	      0.00000000	      0.00000000	      0.00000000	      0.00000000	      0.00000000	      0.00000000	      0.00000000	      0.00000000	      0.00000000	      0.00000000	     -7.45840193	    -15.02058301	    -18.89155049	     20.85892521	    -43.36826632	    -36.00423963	    -36.73956866	      0.00000000	      0.00000000	      0.00000000	    106.25000000	    -28.47000000	      0.00000000	      0.03000000	     -0.03000000	      0.00000000
      0.00259138	     37.41312825	     28.17835566	     30.15779833	     13.17107434	     14.40413783	     15.88700867	     28.98359343	     17.77144023	     30.31777401	     25.27756843	      6.13657738	     27.85001711	     20.43647775	     14.45700305	     12.12863870	     19.63883008	     11.18113770	     11.08812972	      6.22693100	     18.06819838	     27.47155253	     20.50909475	     63.79696686	     55.65806011	     18.00256288	      9.15325047	     20.02652454	     50.13152994	     30.55068282	     31.72942522	     41.95939949	     47.58672285	     22.82039359	    131.97453087	     90.85362882	     15.26605003	     15.37882392	     48.70332918	     20.48543294	     44.83476043	     10.42282904	     26.21809886	      8.43202777	     37.41312825	     28.17835566	     30.15779833	     13.17107434	     14.40413783	     15.88700867	     42.03608400	     20.35563567	     37.64206717	     35.83364460	      7.51443687	     27.85001711	     20.43647775	     14.45700305	     12.12863870	     19.63883008	     12.57419117	     11.08812972	      7.73286255	     18.06819838	     27.47155253	     20.50909475	     63.79696686	     55.65806011	     18.00256288	      9.15325047	     20.02652454	     52.54455831	     32.41413987	     37.15133881	     39.80025395	     67.68383980	     31.63410646	    152.63288329	     92.42271080	     14.93791856	     15.27198397	     41.77987620	     21.60767675	     46.38829052	      8.84244657	     25.01525623	      7.94729486	    123.94531060	    123.94531060	     44.85831926	     44.85831926	     60.86229545	     60.86229545	     72.56567582	    112.55915989	     12.90480408	     -8.15281446	      1.82082609	     30.06936324	    -72.56567582	   -112.55915989	    -12.90480408	      3.63455742	     -2.15358049	     -1.76014366	      0.00000000	      0.00000000	      0.00000000	      0.00000000	      0.00000000	      0.00000000	      0.00000000	      0.00000000	      0.00000000	      0.00000000	      0.00000000	      0.00000000	      0.00000000	      0.00000000	      0.00000000	      0.00000000	      0.00000000	      0.00000000	      0.00000000	      0.00000000	      0.00000000	      0.00000000	      0.00000000	      0.00000000	      0.00000000	      0.00000000	      0.00000000	      0.00000000	      0.00000000	      0.00000000	      0.00000000	      0.00000000	      0.00000000	      0.00000000	      0.00000000	      0.00000000	    -23.09702694	    -32.04713265	      0.00000000	    -19.32777440	    -63.69099655	    -57.50880095	    -57.54013719	      0.00000000	      0.00000000	      0.00000000	    106.25000000	    -28.47000000	      0.00000000	      0.03000000	     -0.03000000	      0.00000000
      0.00418275	     37.30645444	     28.01649898	     30.00922376	     13.01928297	     14.30057876	     15.83967260	     26.05741850	     16.03967911	     27.87257964	     21.09247683	      5.67911989	     27.71477160	     20.14586374	     14.37476122	     12.07702407	     19.59375418	     10.36205997	     10.98233624	      5.55414241	     17.97948200	     27.33851454	     20.42369977	     63.56461542	     55.51647181	     17.86639254	      9.13125158	     20.00627737	     45.69481388	     23.96843863	     24.92865082	     34.13944724	     37.79456571	     18.16993474	    109.02874611	     88.77735929	     15.76127632	     15.58652009	     57.70810600	     19.18325400	     42.94782475	     12.33785603	     27.57709701	      8.96948473	     37.30645444	     28.01649898	     30.00922376	     13.01928297	     14.30057876	     15.83967260	     41.98623887	     20.29184444	     37.58681844	     35.56891386	      7.41878971	     27.71477160	     20.14586374	     14.37476122	     12.07702407	     19.59375418	     12.56247877	     10.98233624	      7.66464930	     17.97948200	     27.33851454	     20.42369977	     63.56461542	     55.51647181	     17.86639254	      9.13125158	     20.00627737	     52.46113331	     32.29954352	     37.03619808	     39.68259253	     67.63416945	     31.61048305	    152.47949091	     92.38359286	     14.94490139	     15.27639285	     41.70192707	     21.57927240	     46.35938438	      8.81408383	     24.96291851	      7.92649449	    122.58100734	    122.58100734	     44.68508261	     44.68508261	     60.67740419	     60.67740419	     60.43325239	    101.93958295	      9.79848000	     -6.62891472	      1.54959915	     25.02693902	    -60.43325239	   -101.93958295	     -9.79848000	      3.25409733	     -1.81787805	     -1.42129501	      0.00000000	      0.00000000	      0.00000000	      0.00000000	      0.00000000	      0.00000000	      0.00000000	      0.00000000	      0.00000000	      0.00000000	      0.00000000	      0.00000000	      0.00000000	      0.00000000	      0.00000000	      0.00000000	      0.00000000	      0.00000000	      0.00000000	      0.00000000	      0.00000000	      0.00000000	      0.00000000	      0.00000000	      0.00000000	      0.00000000	      0.00000000	      0.00000000	      0.00000000	      0.00000000	      0.00000000	      0.00000000	      0.00000000	      0.00000000	      0.00000000	      0.00000000	    -26.08956748	    -35.77662479	      0.00000000	    -33.04442740	    -58.26679784	    -53.24021784	    -52.67719815	      0.00000000	      0.00000000	      0.00000000	    106.25000000	    -28.47000000	      0.00000000	      0.03000000	     -0.03000000	      0.00000000
